G04 Layer_Physical_Order=1*
G04 Layer_Color=255*
%FSLAX43Y43*%
%MOMM*%
G71*
G01*
G75*
%ADD10R,0.850X0.900*%
%ADD11R,0.900X0.850*%
%ADD12R,1.150X1.050*%
%ADD13R,1.250X1.100*%
%ADD14O,1.650X0.550*%
%ADD15O,0.550X1.650*%
%ADD16R,1.100X1.250*%
%ADD17R,1.400X1.200*%
%ADD18R,1.050X1.150*%
%ADD19C,0.254*%
%ADD20C,1.524*%
%ADD21R,1.500X1.500*%
%ADD22C,1.500*%
%ADD23C,1.400*%
%ADD24C,1.800*%
%ADD25R,1.800X1.800*%
%ADD26R,1.650X1.650*%
%ADD27C,1.650*%
%ADD28R,1.778X1.778*%
%ADD29C,1.778*%
%ADD30O,1.750X4.000*%
%ADD31O,1.778X4.000*%
%ADD32O,4.000X1.750*%
%ADD33C,1.700*%
%ADD34R,1.550X1.550*%
%ADD35C,1.550*%
%ADD36C,1.270*%
D10*
X137658Y101981D02*
D03*
X136358D02*
D03*
X137658Y27813D02*
D03*
X136358D02*
D03*
D11*
X144628Y22845D02*
D03*
Y24145D02*
D03*
X129387Y22845D02*
D03*
Y24145D02*
D03*
Y15987D02*
D03*
Y17287D02*
D03*
X144628Y97013D02*
D03*
Y98313D02*
D03*
X129388Y85613D02*
D03*
Y84313D02*
D03*
X129387Y94473D02*
D03*
Y95773D02*
D03*
Y89393D02*
D03*
Y90693D02*
D03*
Y13985D02*
D03*
Y12685D02*
D03*
D12*
X149391Y41529D02*
D03*
X151041D02*
D03*
X149391Y46609D02*
D03*
X151041D02*
D03*
X149391Y51689D02*
D03*
X151041D02*
D03*
X149391Y56769D02*
D03*
X151041D02*
D03*
X135293Y46609D02*
D03*
X133643D02*
D03*
X135293Y51689D02*
D03*
X133643D02*
D03*
X135293Y56769D02*
D03*
X133643D02*
D03*
X135293Y61849D02*
D03*
X133643D02*
D03*
X154662Y54229D02*
D03*
X156312D02*
D03*
X154725Y49149D02*
D03*
X156375D02*
D03*
X154788Y59309D02*
D03*
X156438D02*
D03*
X129959Y44069D02*
D03*
X128309D02*
D03*
X129959Y49149D02*
D03*
X128309D02*
D03*
X129896Y54229D02*
D03*
X128246D02*
D03*
X129959Y59309D02*
D03*
X128309D02*
D03*
X178347Y64135D02*
D03*
X179997D02*
D03*
X167425D02*
D03*
X169075D02*
D03*
X154725Y44069D02*
D03*
X156375D02*
D03*
D13*
X57164Y44958D02*
D03*
X58864D02*
D03*
X57164Y50038D02*
D03*
X58864D02*
D03*
D14*
X73254Y60579D02*
D03*
Y59779D02*
D03*
Y58979D02*
D03*
Y58179D02*
D03*
Y57379D02*
D03*
Y56579D02*
D03*
Y55779D02*
D03*
Y54979D02*
D03*
X81654D02*
D03*
Y55779D02*
D03*
Y56579D02*
D03*
Y57379D02*
D03*
Y58179D02*
D03*
Y58979D02*
D03*
Y59779D02*
D03*
Y60579D02*
D03*
D15*
X74654Y53579D02*
D03*
X75454D02*
D03*
X76254D02*
D03*
X77054D02*
D03*
X77854D02*
D03*
X78654D02*
D03*
X79454D02*
D03*
X80254D02*
D03*
Y61979D02*
D03*
X79454D02*
D03*
X78654D02*
D03*
X77854D02*
D03*
X77054D02*
D03*
X76254D02*
D03*
X75454D02*
D03*
X74654D02*
D03*
D16*
X68174Y59729D02*
D03*
Y61429D02*
D03*
D17*
X68174Y55753D02*
D03*
Y57453D02*
D03*
X70714Y67779D02*
D03*
Y66079D02*
D03*
D18*
X69698Y76898D02*
D03*
Y75248D02*
D03*
X76860Y42253D02*
D03*
Y43903D02*
D03*
D19*
X73304Y34569D02*
X75921Y37186D01*
X80340D01*
X83083Y39929D01*
Y53549D01*
X81654Y54979D02*
X83083Y53549D01*
X70764Y34569D02*
X76860Y40665D01*
Y42253D01*
X76366D02*
X76860D01*
X80254Y38872D02*
Y53579D01*
X68224Y34569D02*
Y39319D01*
X79454Y50548D01*
Y53579D01*
X76759Y44005D02*
Y46177D01*
Y44005D02*
X76860Y43903D01*
X71032Y56579D02*
X73254D01*
X70206Y55753D02*
X71032Y56579D01*
X68174Y55753D02*
X70206D01*
X68248Y57379D02*
X73254D01*
X68174Y57453D02*
X68248Y57379D01*
X71082Y58179D02*
X73254D01*
X69532Y59729D02*
X71082Y58179D01*
X68174Y59729D02*
X69532D01*
X71806Y58979D02*
X73254D01*
X69444Y61341D02*
X71806Y58979D01*
X68262Y61341D02*
X69444D01*
X64745Y56896D02*
Y63373D01*
Y56896D02*
X65888Y55753D01*
X68174D01*
X69698Y76898D02*
Y79121D01*
X70896Y80319D01*
X74016D01*
X69698Y72263D02*
Y75248D01*
Y72263D02*
X70642Y71319D01*
X74016D01*
X70642Y67851D02*
Y71319D01*
Y67851D02*
X70714Y67779D01*
X64745Y71945D02*
X69698Y76898D01*
X64745Y63373D02*
Y71945D01*
X73254Y49149D02*
Y54979D01*
X69190Y45085D02*
X73254Y49149D01*
X65634Y45085D02*
X69190D01*
X71502Y55779D02*
X73254D01*
X65634Y49911D02*
X71502Y55779D01*
X58991Y49911D02*
X65634D01*
X58991Y45085D02*
X65634D01*
X143315Y97013D02*
X144628D01*
X142669Y97660D02*
X143315Y97013D01*
X142669Y97660D02*
Y98317D01*
X137658Y101550D02*
Y101981D01*
Y101550D02*
X138786Y100422D01*
Y100022D02*
Y100422D01*
X128957Y85613D02*
X129388D01*
X127829Y86741D02*
X128957Y85613D01*
X127429Y86741D02*
X127829D01*
X129387Y13985D02*
X129818D01*
X130946Y15113D01*
X131346D01*
X70714Y66079D02*
X71841D01*
X72075Y66313D01*
X72922D01*
X80067Y58179D02*
X81654D01*
X56131Y50038D02*
X57164D01*
X55857Y50311D02*
X56131Y50038D01*
X55030Y50311D02*
X55857D01*
X56003Y44958D02*
X57164D01*
X55984Y44977D02*
X56003Y44958D01*
X55030Y44977D02*
X55984D01*
X179997Y64135D02*
X180916D01*
X181316Y64535D01*
X182080D01*
X144628Y98313D02*
X145058D01*
X146186Y99441D01*
X146586D01*
X68174Y61341D02*
Y61429D01*
X68174Y57453D02*
Y57702D01*
X73254Y56579D02*
X77032D01*
X77832Y55779D01*
X81654D01*
X174600Y64135D02*
X178347D01*
X169075D02*
X172060D01*
X107544Y11049D02*
Y13589D01*
Y16129D01*
Y18669D01*
Y36449D02*
Y38989D01*
Y41529D01*
Y44069D01*
Y61849D02*
Y64389D01*
Y66929D01*
Y69469D01*
Y87249D02*
Y89789D01*
Y92329D01*
Y94869D01*
X120244Y11049D02*
Y13589D01*
Y16129D01*
Y18669D01*
Y36449D02*
Y38989D01*
Y41529D01*
Y44069D01*
Y61849D02*
Y64389D01*
Y66929D01*
Y69469D01*
Y87249D02*
Y89789D01*
Y92329D01*
Y94869D01*
X145898Y41529D02*
X147644D01*
X147644Y41529D01*
X149391D01*
X145898Y46609D02*
X149391D01*
X145898Y51689D02*
X149391D01*
X145898Y56769D02*
X149391D01*
X135293Y46609D02*
X138278D01*
X135293Y51689D02*
X138278D01*
X135293Y56769D02*
X138278D01*
X135293Y61849D02*
X136773D01*
X136773Y61849D01*
X138278D01*
X129387Y17287D02*
X131210D01*
X131352Y17145D01*
X133198D01*
X129387Y24145D02*
X130981D01*
X131601Y24765D01*
X133198D01*
X129896Y54229D02*
X138278D01*
X129959Y44069D02*
X138278D01*
X145898D02*
X154725D01*
X145898Y54229D02*
X154662D01*
X129959Y59309D02*
X138278D01*
X129959Y49149D02*
X138278D01*
X145898Y59309D02*
X154788D01*
X145898Y49149D02*
X150311D01*
X150311Y49149D01*
X154725D01*
X89764Y36449D02*
X90799Y35414D01*
Y12084D02*
Y35414D01*
X89764Y11049D02*
X90799Y12084D01*
X88716Y86201D02*
X89764Y87249D01*
X88716Y62897D02*
Y86201D01*
Y62897D02*
X89764Y61849D01*
X64745Y63373D02*
X65018Y63100D01*
X137658Y26576D02*
Y27813D01*
Y26576D02*
X138379Y25854D01*
X156375Y41275D02*
Y44069D01*
X140818Y83693D02*
X142107Y82404D01*
Y54477D02*
Y82404D01*
Y54477D02*
X143427Y53156D01*
X150914D01*
X151041Y53029D01*
Y51689D02*
Y53029D01*
X144031Y22845D02*
X144628D01*
X143235Y23641D02*
X144031Y22845D01*
X143075Y23641D02*
X143235D01*
X144197Y24145D02*
X144628D01*
X142669Y25679D02*
X143075D01*
X128384Y46609D02*
X133643D01*
X120244Y54750D02*
X128384Y46609D01*
X120244Y54750D02*
Y61849D01*
X58864Y50038D02*
X58991D01*
X58864Y44958D02*
X58991D01*
X97384Y97409D02*
X103765Y91027D01*
X104743D01*
X105004Y90767D01*
Y89789D02*
Y90767D01*
X156438Y59309D02*
X164186D01*
X172060Y51435D01*
X96354Y60820D02*
X97384Y61849D01*
X96354Y58744D02*
Y60820D01*
Y58744D02*
X96818Y58280D01*
X98386D01*
X98825Y58718D01*
X97384Y87249D02*
X98825Y85808D01*
X95948Y80733D02*
X97384Y82169D01*
X95948Y58205D02*
Y80733D01*
Y58205D02*
X97384Y56769D01*
Y84709D02*
X98419Y83674D01*
Y60344D02*
Y83674D01*
X97384Y59309D02*
X98419Y60344D01*
X97384Y36449D02*
X98819Y35013D01*
Y12485D02*
Y35013D01*
X97384Y11049D02*
X98819Y12485D01*
X129387Y95773D02*
X130038D01*
X133198Y98933D01*
X136358Y99553D02*
Y101981D01*
X131705Y16097D02*
X133198Y14605D01*
X129387Y15987D02*
Y16097D01*
X173120Y42335D02*
X174600Y43815D01*
X163900Y42335D02*
X173120D01*
X155823Y34258D02*
X163900Y42335D01*
X155823Y16478D02*
Y34258D01*
X143046Y3702D02*
X155823Y16478D01*
X139021Y3702D02*
X143046D01*
X133198Y9525D02*
X139021Y3702D01*
X151041Y56095D02*
Y56769D01*
X150666Y55721D02*
X151041Y56095D01*
X143554Y55721D02*
X150666D01*
X142665Y56610D02*
X143554Y55721D01*
X142665Y56610D02*
Y84652D01*
X142589Y84728D02*
X142665Y84652D01*
X140303Y84728D02*
X142589D01*
X139770Y84195D02*
X140303Y84728D01*
X139770Y82201D02*
Y84195D01*
Y82201D02*
X140818Y81153D01*
X131566Y56769D02*
X133643D01*
X105004Y64389D02*
X106191Y65576D01*
Y67761D01*
X105759Y68193D02*
X106191Y67761D01*
X103880Y68193D02*
X105759D01*
X102965Y69107D02*
X103880Y68193D01*
X102965Y69107D02*
Y80562D01*
X100578Y82950D02*
X102965Y80562D01*
X100578Y82950D02*
Y88817D01*
X98114Y91281D02*
X100578Y88817D01*
X95891Y91281D02*
X98114D01*
X89764Y97409D02*
X95891Y91281D01*
X140818Y12065D02*
X151041Y22288D01*
Y41529D01*
X89764Y99949D02*
X96120Y93593D01*
X99130D01*
X101314Y91408D01*
Y84525D02*
Y91408D01*
Y84525D02*
X105004Y80835D01*
Y69469D02*
Y80835D01*
X108706Y83331D02*
X117704Y92329D01*
X108706Y72079D02*
Y83331D01*
X110052Y72561D02*
Y82137D01*
X117704Y89789D01*
X140818Y86233D02*
X141847Y87262D01*
Y89402D01*
X141446Y89802D02*
X141847Y89402D01*
X137611Y89802D02*
X141446D01*
X136569Y88761D02*
X137611Y89802D01*
X136569Y69259D02*
Y88761D01*
X133643Y66333D02*
X136569Y69259D01*
X133643Y61849D02*
Y66333D01*
X139313Y87268D02*
X140818Y88773D01*
X139313Y58541D02*
Y87268D01*
X138805Y58033D02*
X139313Y58541D01*
X134207Y58033D02*
X138805D01*
X133643Y57468D02*
X134207Y58033D01*
X133643Y56769D02*
Y57468D01*
X140818Y91313D02*
X141962D01*
X144189Y89086D01*
Y82569D02*
Y89086D01*
Y82569D02*
X163874Y62884D01*
X175254D01*
X175660Y62478D01*
Y55035D02*
Y62478D01*
X174600Y53975D02*
X175660Y55035D01*
X132474Y61849D02*
X133643D01*
X131566Y62757D02*
X132474Y61849D01*
X107080Y71952D02*
Y84245D01*
X117704Y94869D01*
X141345Y28315D02*
Y51378D01*
X142716Y52749D01*
X150209D01*
X150539Y52419D01*
Y51689D02*
X151041D01*
X141853Y26994D02*
X142259Y27400D01*
Y42208D01*
X145554Y45504D01*
X150602D01*
X151041Y45942D01*
Y46609D01*
X96336Y55721D02*
X97384Y56769D01*
X96336Y35782D02*
Y55721D01*
Y35782D02*
X97180Y34938D01*
X98038D01*
X98413Y34563D01*
Y32398D02*
Y34563D01*
X97384Y31369D02*
X98413Y32398D01*
X75454Y76677D02*
X79096Y80319D01*
X75454Y61979D02*
Y76677D01*
X166505Y64135D02*
X167425D01*
X155031Y75609D02*
X166505Y64135D01*
X131566Y52089D02*
X131966Y51689D01*
X133643D01*
X133801Y50641D01*
X138271D01*
X139719Y49193D01*
Y10624D02*
Y49193D01*
Y10624D02*
X140818Y9525D01*
X105429Y85134D02*
X107544Y87249D01*
X105429Y71139D02*
Y85134D01*
Y71139D02*
X105912Y70656D01*
X118891D01*
Y48457D02*
Y70656D01*
Y48457D02*
X134233Y33115D01*
Y23717D02*
Y33115D01*
X132988Y23717D02*
X134233D01*
X132150Y22879D02*
X132988Y23717D01*
X132150Y21609D02*
Y22879D01*
Y21609D02*
X132582Y21177D01*
X133953D01*
X134791Y20339D01*
Y9442D02*
Y20339D01*
Y9442D02*
X139160Y5074D01*
X141116D01*
X142081Y6039D01*
Y10801D01*
X140818Y12065D02*
X142081Y10801D01*
X105004Y11049D02*
X106191Y12236D01*
Y14345D01*
X105759Y14776D02*
X106191Y14345D01*
X104369Y14776D02*
X105759D01*
X103835Y14243D02*
X104369Y14776D01*
X103835Y13233D02*
Y14243D01*
X97911Y7309D02*
X103835Y13233D01*
X95498Y7309D02*
X97911D01*
X94659Y8147D02*
X95498Y7309D01*
X94659Y8147D02*
Y36633D01*
X89764Y41529D02*
X94659Y36633D01*
X86658Y5201D02*
Y43504D01*
Y5201D02*
X87471Y4388D01*
X100476D01*
X101365Y5277D01*
Y9950D01*
X105004Y13589D01*
X93364Y15100D02*
Y35389D01*
X89764Y38989D02*
X93364Y35389D01*
X88716Y91281D02*
X89764Y92329D01*
X88716Y89021D02*
Y91281D01*
Y89021D02*
X89458Y88278D01*
X98419D01*
X99409Y87288D01*
Y67443D02*
Y87288D01*
Y67443D02*
X105004Y61849D01*
X103829Y66929D02*
X105004D01*
X99993Y70764D02*
X103829Y66929D01*
X99993Y70764D02*
Y87511D01*
X98819Y88685D02*
X99993Y87511D01*
X90868Y88685D02*
X98819D01*
X89764Y89789D02*
X90868Y88685D01*
X151041Y57423D02*
X152724D01*
X151041Y56769D02*
Y57423D01*
X133643Y46609D02*
X133801Y45561D01*
X138474D01*
X139313Y44723D01*
Y8490D02*
Y44723D01*
Y8490D02*
X140818Y6985D01*
X120244Y87249D02*
X126917Y80575D01*
Y59176D02*
Y80575D01*
Y59176D02*
X130372Y55721D01*
X138678D01*
X140125Y54273D01*
Y27527D02*
Y54273D01*
Y27527D02*
X141853Y25800D01*
Y15640D02*
Y25800D01*
X140818Y14605D02*
X141853Y15640D01*
X103600Y22346D02*
X117704Y36449D01*
X103600Y14769D02*
Y22346D01*
X98850Y10020D02*
X103600Y14769D01*
X96818Y10020D02*
X98850D01*
X96354Y10484D02*
X96818Y10020D01*
X96354Y10484D02*
Y12560D01*
X97384Y13589D01*
X96354Y76720D02*
X97377Y77743D01*
X96354Y65418D02*
Y76720D01*
Y65418D02*
X97384Y64389D01*
X69717Y67500D02*
X70714Y67779D01*
X77054Y60398D02*
Y61979D01*
X139770Y92805D02*
X140818Y93853D01*
X139770Y90646D02*
Y92805D01*
Y90646D02*
X140207Y90209D01*
X141847D01*
X143199Y88857D01*
Y59912D02*
Y88857D01*
Y59912D02*
X144850Y58261D01*
X150819Y58363D01*
X160979D01*
X168980Y50362D01*
X173526D01*
X174600Y51435D01*
X132578Y12685D02*
X133198Y12065D01*
X129387Y12685D02*
X132578D01*
X133198Y22225D02*
X134245Y23273D01*
X134690D01*
X136358Y24940D01*
Y27813D01*
X129387Y22845D02*
X130038D01*
X133198Y19685D01*
X129388Y84313D02*
X131278D01*
X132578Y90693D02*
X133198Y91313D01*
X129387Y90693D02*
X132578D01*
X132578Y89393D02*
X133198Y88773D01*
X129387Y89393D02*
X132578D01*
X132578Y94473D02*
X133198Y93853D01*
X129387Y94473D02*
X132578D01*
X79454Y61979D02*
Y63561D01*
X79445Y63570D02*
X79454Y63561D01*
X80254Y61979D02*
Y62325D01*
X86049D02*
X87395Y60979D01*
X88741Y7233D02*
X92094D01*
X93358Y5969D01*
X97384D01*
X95541Y10351D02*
X97384Y8509D01*
X95541Y10351D02*
Y32067D01*
X97384Y33909D01*
X95523Y35770D02*
X97384Y33909D01*
X95523Y35770D02*
Y82848D01*
X97384Y84709D01*
Y36449D02*
X98825Y37890D01*
X156375Y49149D02*
X158464D01*
X128309Y42900D02*
Y44069D01*
Y42900D02*
X135014Y36195D01*
X128309Y59309D02*
Y60573D01*
X156312Y54229D02*
X158388D01*
X127394Y50311D02*
X127641Y49149D01*
X128309D01*
X88309Y93415D02*
X89764Y94869D01*
X88309Y75254D02*
Y93415D01*
X76254Y63198D02*
X88309Y75254D01*
X76254Y61979D02*
Y63198D01*
X88309Y45523D02*
X89764Y44069D01*
X88716Y19717D02*
X89764Y18669D01*
X88716Y19717D02*
Y42285D01*
X89128Y42697D01*
X89910D01*
X90799Y43586D01*
Y68434D01*
X89764Y69469D02*
X90799Y68434D01*
X64833Y59729D02*
X68174D01*
X150539Y51689D02*
Y52419D01*
X141853Y25800D02*
Y26994D01*
X77054Y60398D02*
X77064Y60388D01*
X129387Y16097D02*
X131705D01*
X58991Y44958D02*
Y45085D01*
X58991Y49911D02*
Y50038D01*
X87395Y57448D02*
Y60979D01*
X80254Y62325D02*
X86049D01*
X98825Y37890D02*
Y58718D01*
Y85808D01*
X88309Y45523D02*
Y75254D01*
X68174Y61341D02*
X68262D01*
X142669Y25673D02*
X142869Y25473D01*
X144197Y24145D01*
X142669Y25673D02*
Y25679D01*
X128220Y54254D02*
X128246Y54229D01*
X126009Y54254D02*
X128220D01*
X73254Y57379D02*
X75007D01*
X75768Y58141D01*
X74930Y58979D02*
X75768Y58141D01*
X73254Y58979D02*
X74930D01*
X78613Y61938D02*
X78654Y61979D01*
X78613Y59360D02*
Y61938D01*
X87605Y8369D02*
X88741Y7233D01*
X87605Y8369D02*
Y57239D01*
X87395Y57448D02*
X87605Y57239D01*
X83985Y59779D02*
X85293Y58471D01*
X81654Y59779D02*
X83985D01*
X81654Y60579D02*
X85674D01*
X69717Y63011D02*
Y67500D01*
D20*
X43688Y6147D02*
D03*
X182474Y106045D02*
D03*
Y6223D02*
D03*
D21*
X133198Y24765D02*
D03*
Y98933D02*
D03*
X138278Y64389D02*
D03*
X89764Y23749D02*
D03*
Y74549D02*
D03*
Y49149D02*
D03*
Y99949D02*
D03*
D22*
X133198Y22225D02*
D03*
Y19685D02*
D03*
Y17145D02*
D03*
Y14605D02*
D03*
Y12065D02*
D03*
Y9525D02*
D03*
Y6985D02*
D03*
X140818Y24765D02*
D03*
Y22225D02*
D03*
Y19685D02*
D03*
Y17145D02*
D03*
Y14605D02*
D03*
Y12065D02*
D03*
Y9525D02*
D03*
Y6985D02*
D03*
X133198Y96393D02*
D03*
Y93853D02*
D03*
Y91313D02*
D03*
Y88773D02*
D03*
Y86233D02*
D03*
Y83693D02*
D03*
Y81153D02*
D03*
X140818Y98933D02*
D03*
Y96393D02*
D03*
Y93853D02*
D03*
Y91313D02*
D03*
Y88773D02*
D03*
Y86233D02*
D03*
Y83693D02*
D03*
Y81153D02*
D03*
X138278Y61849D02*
D03*
Y59309D02*
D03*
Y56769D02*
D03*
Y54229D02*
D03*
Y51689D02*
D03*
Y49149D02*
D03*
Y46609D02*
D03*
Y44069D02*
D03*
Y41529D02*
D03*
X145898Y64389D02*
D03*
Y61849D02*
D03*
Y59309D02*
D03*
Y56769D02*
D03*
Y54229D02*
D03*
Y51689D02*
D03*
Y49149D02*
D03*
Y46609D02*
D03*
Y44069D02*
D03*
Y41529D02*
D03*
X97384Y5969D02*
D03*
Y8509D02*
D03*
Y11049D02*
D03*
Y13589D02*
D03*
Y16129D02*
D03*
Y18669D02*
D03*
Y21209D02*
D03*
Y23749D02*
D03*
X89764Y5969D02*
D03*
Y8509D02*
D03*
Y11049D02*
D03*
Y13589D02*
D03*
Y16129D02*
D03*
Y18669D02*
D03*
Y21209D02*
D03*
X97384Y56769D02*
D03*
Y59309D02*
D03*
Y61849D02*
D03*
Y64389D02*
D03*
Y66929D02*
D03*
Y69469D02*
D03*
Y72009D02*
D03*
Y74549D02*
D03*
X89764Y56769D02*
D03*
Y59309D02*
D03*
Y61849D02*
D03*
Y64389D02*
D03*
Y66929D02*
D03*
Y69469D02*
D03*
Y72009D02*
D03*
X97384Y31369D02*
D03*
Y33909D02*
D03*
Y36449D02*
D03*
Y38989D02*
D03*
Y41529D02*
D03*
Y44069D02*
D03*
Y46609D02*
D03*
Y49149D02*
D03*
X89764Y31369D02*
D03*
Y33909D02*
D03*
Y36449D02*
D03*
Y38989D02*
D03*
Y41529D02*
D03*
Y44069D02*
D03*
Y46609D02*
D03*
X97384Y82169D02*
D03*
Y84709D02*
D03*
Y87249D02*
D03*
Y89789D02*
D03*
Y92329D02*
D03*
Y94869D02*
D03*
Y97409D02*
D03*
Y99949D02*
D03*
X89764Y82169D02*
D03*
Y84709D02*
D03*
Y87249D02*
D03*
Y89789D02*
D03*
Y92329D02*
D03*
Y94869D02*
D03*
Y97409D02*
D03*
D23*
X65634Y49911D02*
D03*
Y45085D02*
D03*
D24*
X65684Y34569D02*
D03*
X68224D02*
D03*
X70764D02*
D03*
X73304D02*
D03*
X75844D02*
D03*
X78384D02*
D03*
X80924D02*
D03*
D25*
X83464D02*
D03*
D26*
X79096Y71319D02*
D03*
X74016D02*
D03*
D27*
X79096Y80319D02*
D03*
X74016D02*
D03*
D28*
X117704Y18669D02*
D03*
Y44069D02*
D03*
Y69469D02*
D03*
X105004Y18669D02*
D03*
Y44069D02*
D03*
Y69469D02*
D03*
Y94869D02*
D03*
X117704D02*
D03*
D29*
X120244Y18669D02*
D03*
X117704Y16129D02*
D03*
X120244D02*
D03*
X117704Y13589D02*
D03*
X120244D02*
D03*
X117704Y11049D02*
D03*
X120244D02*
D03*
Y44069D02*
D03*
X117704Y41529D02*
D03*
X120244D02*
D03*
X117704Y38989D02*
D03*
X120244D02*
D03*
X117704Y36449D02*
D03*
X120244D02*
D03*
Y69469D02*
D03*
X117704Y66929D02*
D03*
X120244D02*
D03*
X117704Y64389D02*
D03*
X120244D02*
D03*
X117704Y61849D02*
D03*
X120244D02*
D03*
X107544Y18669D02*
D03*
X105004Y16129D02*
D03*
X107544D02*
D03*
X105004Y13589D02*
D03*
X107544D02*
D03*
X105004Y11049D02*
D03*
X107544D02*
D03*
Y44069D02*
D03*
X105004Y41529D02*
D03*
X107544D02*
D03*
X105004Y38989D02*
D03*
X107544D02*
D03*
X105004Y36449D02*
D03*
X107544D02*
D03*
Y69469D02*
D03*
X105004Y66929D02*
D03*
X107544D02*
D03*
X105004Y64389D02*
D03*
X107544D02*
D03*
X105004Y61849D02*
D03*
X107544D02*
D03*
Y94869D02*
D03*
X105004Y92329D02*
D03*
X107544D02*
D03*
X105004Y89789D02*
D03*
X107544D02*
D03*
X105004Y87249D02*
D03*
X107544D02*
D03*
X120244Y94869D02*
D03*
X117704Y92329D02*
D03*
X120244D02*
D03*
X117704Y89789D02*
D03*
X120244D02*
D03*
X117704Y87249D02*
D03*
X120244D02*
D03*
X47650Y37490D02*
D03*
Y40030D02*
D03*
X45110Y37490D02*
D03*
X42570D02*
D03*
Y40030D02*
D03*
Y42570D02*
D03*
Y45110D02*
D03*
Y47650D02*
D03*
Y50190D02*
D03*
Y52730D02*
D03*
Y55270D02*
D03*
Y75590D02*
D03*
Y73050D02*
D03*
Y70510D02*
D03*
Y67970D02*
D03*
Y65430D02*
D03*
Y62890D02*
D03*
Y60350D02*
D03*
Y57810D02*
D03*
Y98450D02*
D03*
Y100990D02*
D03*
Y103530D02*
D03*
Y106070D02*
D03*
Y108610D02*
D03*
Y111150D02*
D03*
Y113690D02*
D03*
Y116230D02*
D03*
Y95910D02*
D03*
Y93370D02*
D03*
Y90830D02*
D03*
Y88290D02*
D03*
Y85750D02*
D03*
Y83210D02*
D03*
Y80670D02*
D03*
Y78130D02*
D03*
X45110D02*
D03*
Y80670D02*
D03*
Y83210D02*
D03*
Y85750D02*
D03*
Y88290D02*
D03*
Y90830D02*
D03*
Y93370D02*
D03*
Y95910D02*
D03*
Y116230D02*
D03*
Y113690D02*
D03*
Y111150D02*
D03*
Y108610D02*
D03*
Y106070D02*
D03*
Y103530D02*
D03*
Y100990D02*
D03*
Y98450D02*
D03*
Y57810D02*
D03*
Y60350D02*
D03*
Y62890D02*
D03*
Y65430D02*
D03*
Y67970D02*
D03*
Y70510D02*
D03*
Y73050D02*
D03*
Y75590D02*
D03*
Y55270D02*
D03*
Y52730D02*
D03*
Y50190D02*
D03*
Y47650D02*
D03*
Y45110D02*
D03*
Y42570D02*
D03*
Y40030D02*
D03*
X47650Y42570D02*
D03*
Y45110D02*
D03*
Y47650D02*
D03*
Y50190D02*
D03*
Y52730D02*
D03*
Y55270D02*
D03*
Y75590D02*
D03*
Y73050D02*
D03*
Y70510D02*
D03*
Y67970D02*
D03*
Y65430D02*
D03*
Y62890D02*
D03*
Y60350D02*
D03*
Y57810D02*
D03*
Y98450D02*
D03*
Y100990D02*
D03*
Y103530D02*
D03*
Y106070D02*
D03*
Y108610D02*
D03*
Y111150D02*
D03*
Y113690D02*
D03*
Y116230D02*
D03*
Y95910D02*
D03*
Y93370D02*
D03*
Y90830D02*
D03*
Y88290D02*
D03*
Y85750D02*
D03*
Y83210D02*
D03*
Y80670D02*
D03*
Y78130D02*
D03*
D30*
X65278Y17272D02*
D03*
D31*
X71278D02*
D03*
D32*
X68478Y12572D02*
D03*
D33*
X64745Y63373D02*
D03*
X57125D02*
D03*
D34*
X172060Y33655D02*
D03*
D35*
Y36195D02*
D03*
Y38735D02*
D03*
Y41275D02*
D03*
Y43815D02*
D03*
Y46355D02*
D03*
Y48895D02*
D03*
Y51435D02*
D03*
Y53975D02*
D03*
Y56515D02*
D03*
Y59055D02*
D03*
Y61595D02*
D03*
Y64135D02*
D03*
Y66675D02*
D03*
Y69215D02*
D03*
Y71755D02*
D03*
Y74295D02*
D03*
X174600Y33655D02*
D03*
Y36195D02*
D03*
Y38735D02*
D03*
Y41275D02*
D03*
Y43815D02*
D03*
Y46355D02*
D03*
Y48895D02*
D03*
Y51435D02*
D03*
Y53975D02*
D03*
Y56515D02*
D03*
Y59055D02*
D03*
Y61595D02*
D03*
Y64135D02*
D03*
Y66675D02*
D03*
Y69215D02*
D03*
Y71755D02*
D03*
Y74295D02*
D03*
D36*
X80254Y38872D02*
D03*
X76759Y46177D02*
D03*
X142669Y98317D02*
D03*
X138786Y100022D02*
D03*
X127429Y86741D02*
D03*
X131346Y15113D02*
D03*
X72922Y66313D02*
D03*
X80067Y58179D02*
D03*
X55030Y50311D02*
D03*
X55030Y44977D02*
D03*
X182080Y64535D02*
D03*
X146586Y99441D02*
D03*
X138379Y25854D02*
D03*
X156375Y41275D02*
D03*
X143075Y23641D02*
D03*
Y25679D02*
D03*
X136358Y99553D02*
D03*
X131566Y56769D02*
D03*
X108706Y72079D02*
D03*
X110052Y72561D02*
D03*
X131566Y62757D02*
D03*
X107080Y71952D02*
D03*
X141345Y28315D02*
D03*
X155031Y75609D02*
D03*
X131566Y52089D02*
D03*
X86658Y43504D02*
D03*
X93364Y15100D02*
D03*
X152724Y57423D02*
D03*
X97377Y77743D02*
D03*
X131278Y84313D02*
D03*
X79445Y63570D02*
D03*
X87395Y57448D02*
D03*
X158464Y49149D02*
D03*
X135014Y36195D02*
D03*
X128309Y60573D02*
D03*
X158388Y54229D02*
D03*
X127394Y50311D02*
D03*
X126009Y54254D02*
D03*
X75768Y58141D02*
D03*
X78613Y59360D02*
D03*
X85293Y58471D02*
D03*
X85674Y60579D02*
D03*
X69717Y63011D02*
D03*
X76937Y59842D02*
D03*
M02*
